<svg width="20" height="20" viewBox="0 0 24 24" fill="currentColor" aria-hidden="true">
  <path d="M12 .5a12 12 0 0 0-3.793 23.4c.6.111.82-.261.82-.58 0-.287-.01-1.051-.016-2.064-3.338.726-4.042-1.61-4.042-1.61-.546-1.387-1.334-1.757-1.334-1.757-1.091-.746.083-.731.083-.731 1.206.085 1.84 1.238 1.84 1.238 1.073 1.838 2.815 1.307 3.5.999.108-.777.42-1.308.763-1.609-2.665-.303-5.467-1.333-5.467-5.932 0-1.31.469-2.381 1.236-3.221-.124-.303-.536-1.524.117-3.176 0 0 1.008-.323 3.301 1.23a11.5 11.5 0 0 1 6.006 0c2.292-1.553 3.299-1.23 3.299-1.23.654 1.652.242 2.873.118 3.176.769.84 1.235 1.911 1.235 3.221 0 4.61-2.807 5.626-5.479 5.922.431.372.815 1.103.815 2.223 0 1.606-.015 2.901-.015 3.297 0 .321.218.695.826.577A12.001 12.001 0 0 0 12 .5z" />
</svg>

